<svg version="1.1" id="Layer_1" xmlns="http://www.w3.org/2000/svg" xmlns:xlink="http://www.w3.org/1999/xlink" x="0px" y="0px"
	 width="100%" viewBox="0 0 228 272" enable-background="new 0 0 228 272" xml:space="preserve">
<path fill="#FFFFFF" opacity="1.000000" stroke="none" 
	d="
M8.000000,1.000000 
	C78.687561,1.000000 149.375122,1.000000 220.531342,1.468657 
	C221.000000,89.517502 221.000000,177.097687 221.000000,264.785675 
	C150.141068,264.785675 79.752861,264.785675 9.000000,264.785675 
	C9.000000,262.784973 9.000000,260.992767 9.000000,259.200531 
	C9.000000,179.061050 9.021111,98.921555 8.956886,18.782120 
	C8.952136,12.854495 8.333333,6.927362 8.000000,1.000000 
z"/>
<path fill="#000000" opacity="1.000000" stroke="none" 
	d="
M7.502095,1.000000 
	C8.333333,6.927362 8.952136,12.854495 8.956886,18.782120 
	C9.021111,98.921555 9.000000,179.061050 9.000000,259.200531 
	C9.000000,260.992767 9.000000,262.784973 9.000000,264.785675 
	C79.752861,264.785675 150.141068,264.785675 221.000000,264.785675 
	C221.000000,177.097687 221.000000,89.517502 221.000000,1.468657 
	C223.664978,1.000000 226.329971,1.000000 228.996216,1.000000 
	C228.997467,91.607819 228.997467,182.215637 228.997467,272.911743 
	C153.106873,272.911743 77.213593,272.911743 1.160162,272.911743 
	C1.160162,182.333588 1.160162,91.666794 1.160162,1.000000 
	C3.006630,1.000000 5.005410,1.000000 7.502095,1.000000 
z"/>
</svg>